<?xml version="1.0" standalone="no"?><!DOCTYPE svg PUBLIC "-//W3C//DTD SVG 1.1//EN" "http://www.w3.org/Graphics/SVG/1.1/DTD/svg11.dtd"><svg t="1690038697916" class="icon" viewBox="0 0 1024 1024" version="1.1" xmlns="http://www.w3.org/2000/svg" p-id="10155" xmlns:xlink="http://www.w3.org/1999/xlink" width="200" height="200"><path d="M511.998969 511.998969m-511.998969 0a511.998969 511.998969 0 1 0 1023.997938 0 511.998969 511.998969 0 1 0-1023.997938 0Z" fill="#F16051" p-id="10156"></path><path d="M956.799646 286.400725c-3.200999 0-6.399936 0-9.600935 1.6005-6.399936-11.199372-19.199807-19.199807-33.600177-19.199807-4.799436 0-9.600935 1.6005-12.799871 1.600499-4.799436-17.599307-19.199807-28.800741-38.399614-28.800741-22.400806 0-40.000113 17.599307-40.000112 40.000113v6.399936h-3.200999c-22.400806 0-40.000113 17.599307-40.000113 40.000112 0 22.400806 17.599307 40.000113 40.000113 40.000113h139.200145c22.400806 0 40.000113-17.599307 40.000112-40.000113-3.198937-24.001305-20.798244-41.600612-41.598549-41.600612z" fill="#FFFFFF" p-id="10157"></path><path d="M956.799646 380.799259h-139.200146c-30.399178 0-55.99892-25.599742-55.99892-56.000983 0-27.200242 19.199807-49.598985 43.199049-54.400484 4.799436-25.599742 27.200242-46.400048 54.400484-46.400048 19.199807 0 38.399613 11.199372 48.000548 27.200242 16.00087-1.6005 33.600177 6.399936 44.799548 17.599307 31.999678-1.6005 59.199919 23.999243 59.19992 56.000983s-24.001305 56.000983-54.400483 56.000983z m-139.200146-78.399726c-12.799871 0-23.999243 11.199372-23.999242 23.999242s11.199372 23.999243 23.999242 23.999243h139.200146c12.799871 0 23.999243-11.199372 23.999242-23.999243 0-14.400371-14.400371-27.200242-28.800741-22.400805-6.399936 1.6005-14.400371-1.6005-17.599307-8.000435-6.399936-9.600935-17.599307-14.400371-28.800741-9.600935-4.799436 1.6005-9.600935 1.6005-12.799871-1.600499-3.200999-1.6005-6.399936-6.399936-8.000436-9.600935-3.200999-9.600935-12.799871-17.599307-22.400805-17.599307-12.799871 0-23.999243 11.199372-23.999243 23.999243v3.200999c0 4.799436-1.6005 9.600935-4.799436 12.799871-3.200999 3.200999-8.000435 4.799436-12.799871 4.799436-1.598437 0.004125-3.198937 0.004125-3.198937 0.004125z" fill="#193651" p-id="10158"></path><path d="M500.799597 272.000354c-3.200999 0-6.399936 0-9.600934 1.6005-6.399936-11.199372-19.199807-19.199807-33.600178-19.199807-4.799436 0-9.600935 1.6005-12.799871 1.6005-4.799436-17.599307-19.199807-28.800741-38.399613-28.800741-22.400806 0-40.000113 17.599307-40.000113 40.000112v6.399936h-3.200999c-22.400806 0-40.000113 17.599307-40.000113 40.000113 0 22.400806 17.599307 40.000113 40.000113 40.000113h139.200145c22.400806 0 40.000113-17.599307 40.000113-40.000113-3.198937-24.001305-20.798244-41.600612-41.59855-41.600613z" fill="#FFFFFF" p-id="10159"></path><path d="M500.799597 366.398888h-139.200145c-30.399178 0-56.000983-25.599742-56.000983-56.000983 0-27.200242 19.199807-49.598985 43.19905-54.400483 4.799436-25.599742 27.200242-46.400048 54.400483-46.400048 19.199807 0 38.399613 11.199372 48.000548 27.200241 17.599307-1.6005 33.600177 6.399936 44.799549 17.599307 31.999678-1.6005 59.199919 23.999243 59.199919 56.000983 0.002062 30.401241-23.99718 56.000983-54.398421 56.000983z m-139.200145-78.399726c-12.799871 0-23.999243 11.199372-23.999243 23.999243s11.199372 23.999243 23.999243 23.999242h139.200145c12.799871 0 23.999243-11.199372 23.999243-23.999242 0-14.400371-12.799871-27.200242-30.399178-22.400806-6.399936 1.6005-14.400371-1.6005-17.599308-8.000435-6.399936-9.600935-17.599307-14.400371-28.800741-9.600935-4.799436 1.6005-9.600935 1.6005-12.799871-1.600499-3.200999-1.6005-6.399936-6.399936-8.000435-9.600935-3.200999-9.600935-12.799871-17.599307-22.400806-17.599307-12.799871 0-23.999243 11.199372-23.999242 23.999243v3.200999c0 4.799436-1.6005 9.600935-4.799436 12.799871-3.200999 3.200999-8.000435 4.799436-12.799871 4.799436h-1.6005z" fill="#193651" p-id="10160"></path><path d="M649.600677 492.799162l49.598985 65.599855 62.400918-87.998598-111.999903-217.599871-110.401467 217.599871 62.400919 87.998598z" fill="#FDBF5E" p-id="10161"></path><path d="M699.199662 574.399887c-4.799436 0-9.600935-1.6005-12.799871-6.399935l-35.200677-48.000548-35.200677 48.000548c-3.200999 4.799436-8.000435 6.399936-12.799871 6.399935s-9.600935-3.200999-12.799871-6.399935l-63.999356-88.000661c-3.200999-4.799436-3.200999-11.199372-1.600499-16.00087l110.399404-217.599871c4.799436-11.199372 22.400806-11.199372 28.800741 0l111.999903 217.599871c3.200999 4.799436 1.6005 11.199372-1.600499 16.00087l-62.400919 88.000661c-3.196874 3.198937-7.998373 6.399936-12.797808 6.399935z m-140.800645-105.599968l43.199049 62.400919 35.200677-48.000548c6.399936-8.000435 19.199807-8.000435 25.599742 0l35.200677 48.000548 43.199049-62.400919-91.199597-180.800757-91.199597 180.800757z" fill="#193651" p-id="10162"></path><path d="M993.598759 993.598759L761.60058 470.400419l-62.400918 87.998598-49.598985-65.599855-48.000548 65.599855-62.400919-87.998598-232.000241 523.19834z" fill="#FFFFFF" p-id="10163"></path><path d="M993.598759 1009.599629H305.600532c-4.799436 0-11.199372-3.200999-12.799871-8.000435-3.200999-4.799436-3.200999-9.600935-1.6005-16.00087l233.598679-521.597841c1.6005-4.799436 8.000435-9.600935 12.799871-9.600934 6.399936 0 11.199372 1.6005 14.400371 6.399935l49.598984 70.399291 35.200677-48.000547c6.399936-8.000435 19.199807-8.000435 25.599742 0l35.200677 48.000547 49.598985-70.399291c3.200999-4.799436 8.000435-6.399936 14.400371-6.399935s11.199372 4.799436 12.799871 9.600934l233.600741 523.200403c1.6005 4.799436 1.6005 11.199372-1.6005 16.00087-1.598437 4.797374-6.397873 6.397873-12.799871 6.397873z m-662.398485-31.999677h638.399243l-211.199936-475.199855-46.400048 63.999355c-3.200999 4.799436-8.000435 6.399936-12.799871 6.399936s-9.600935-1.6005-12.799871-6.399936l-35.200677-48.000548-35.200677 48.000548c-3.200999 4.799436-8.000435 6.399936-12.799871 6.399936s-9.600935-3.200999-12.799871-6.399936l-46.400049-63.999355-212.798372 475.199855z" fill="#193651" p-id="10164"></path><path d="M401.599565 931.199903l150.399517-335.99971 48.000547 68.798792 49.601048-67.198292 51.199484 67.198292 48.000548-68.798792L897.599726 931.199903z" fill="#E1E6E9" p-id="10165"></path><path d="M292.800661 668.800483L211.199936 587.199758 30.399178 993.598759h526.401402l-180.800757-406.399001z" fill="#FFFFFF" p-id="10166"></path><path d="M556.80058 1009.599629H30.399178c-4.799436 0-11.199372-3.200999-12.799871-8.000435-3.200999-4.799436-3.200999-9.600935-1.600499-16.00087l180.800757-406.399001c1.6005-4.799436 6.399936-8.000435 11.199372-9.600934 4.799436-1.6005 11.199372 0 14.40037 4.799436l70.399291 70.399291 70.399291-70.399291c3.200999-3.200999 9.600935-4.799436 14.400371-4.799436 4.799436 1.6005 9.600935 4.799436 11.199371 9.600934l179.200258 404.800564c1.6005 3.200999 3.200999 6.399936 3.200999 9.600935 1.6005 9.598872-4.799436 15.998808-14.398308 15.998807zM54.400483 977.599952h476.800355L369.599887 614.4l-65.599855 65.599855c-6.399936 6.399936-16.00087 6.399936-22.400805 0l-65.599855-65.599855-161.598889 363.199952z" fill="#193651" p-id="10167"></path><path d="M126.400274 931.199903l105.599968-236.799677 60.800419 62.398856 62.398856-62.398856 105.599967 236.799677z" fill="#E1E6E9" p-id="10168"></path><path d="M375.999823 587.199758l-83.199162-183.999694-81.600725 183.999694 81.600725 81.600725z" fill="#FDBF5E" p-id="10169"></path><path d="M292.800661 684.799291c-4.799436 0-8.000435-1.6005-11.199372-4.799436L200.000564 598.39913c-4.799436-4.799436-6.399936-11.199372-3.200999-17.599307l81.600725-183.999694c3.200999-6.399936 8.000435-9.600935 14.400371-9.600935s12.799871 3.200999 14.40037 9.600935L388.801756 580.799823c3.200999 6.399936 1.6005 12.799871-3.200999 17.599307l-81.600725 81.600725c-3.200999 3.200999-6.399936 4.799436-11.199371 4.799436z m-62.400919-100.798469l62.400919 62.400918 62.400918-62.400918-62.400918-140.800645-62.400919 140.800645zM649.600677 268.799355c-9.600935 0-16.00087-6.399936-16.00087-16.00087V30.399178c0-9.600935 6.399936-16.00087 16.00087-16.00087s16.00087 6.399936 16.00087 16.00087v222.399307c-0.002062 9.600935-6.401998 16.00087-16.00087 16.00087z" fill="#193651" p-id="10170"></path><path d="M649.600677 30.399178V211.199936l241.599114-91.199598z" fill="#2EA2DB" p-id="10171"></path><path d="M649.600677 227.200806c-3.200999 0-6.399936-1.6005-9.600935-3.200999-4.799436-3.200999-6.399936-8.000435-6.399935-12.799871V30.399178c0-4.799436 3.200999-9.600935 6.399935-12.799871 4.799436-3.200999 9.600935-3.200999 14.400371-1.600499L895.999227 105.599968c6.399936 1.6005 9.600935 8.000435 9.600934 14.40037s-4.799436 12.799871-9.600934 14.400371L655.99855 225.600306c-1.598437 0-3.198937 1.6005-6.397873 1.6005z m15.998807-174.400822v134.400709L844.799742 120.000338 665.599484 52.799984z" fill="#193651" p-id="10172"></path><path d="M280.00079 92.800097c-4.799436 0-9.600935 0-14.400371 1.600499-9.600935-16.00087-27.200242-27.200242-48.000548-27.200242-6.399936 0-12.799871 1.6005-19.199807 3.201-6.399936-23.999243-27.200242-41.600612-52.799983-41.600613-30.399178 0-56.000983 23.999243-56.000983 56.000983v8.000435h-4.799436c-30.399178 0-56.000983 23.999243-56.000983 56.000983s24.001305 55.996858 56.000983 55.996858h193.600628c30.399178 0 56.000983-23.999243 56.000983-56.000983s-24.001305-55.99892-54.400483-55.99892z" fill="#FFFFFF" p-id="10173"></path><path d="M280.00079 219.200371H84.799662c-40.000113 0-71.999791-31.999678-71.999791-71.999791 0-35.200677 25.599742-65.599855 60.800419-70.399291 3.200999-35.200677 33.600177-63.999355 70.399291-63.999355 27.200242 0 51.199484 14.400371 62.400919 38.399613 23.999243-3.200999 48.000548 6.399936 63.999355 25.599742 41.600612-4.799436 78.399726 28.800741 78.399726 70.399291 1.6005 40.000113-30.399178 71.999791-68.798791 71.999791zM84.799662 108.800967c-22.400806 0-40.000113 17.599307-40.000113 40.000113 0 22.400806 17.599307 40.000113 40.000113 40.000112h193.600628c22.400806 0 40.000113-17.599307 40.000113-40.000112 0-25.599742-23.999243-44.799549-49.598985-38.399614-6.399936 1.6005-14.400371-1.6005-17.599307-8.000435-9.600935-16.00087-28.800741-23.999243-46.400049-17.599307-4.799436 1.6005-9.600935 1.6005-12.799871-1.600499-3.200999-1.6005-6.399936-6.399936-8.000435-9.600935-4.799436-17.599307-20.800306-28.800741-38.399613-28.800741-22.400806 0-40.000113 17.599307-40.000113 40.000113v6.399935c0 4.799436-1.6005 9.600935-4.799436 12.799871-1.6005 3.200999-6.399936 4.799436-11.199371 4.799436l-4.803561 0.002063zM193.600628 852.800177h31.999678v30.399178H193.600628zM276.799791 852.800177h31.999677v30.399178h-31.999677zM361.599452 852.800177h31.999678v30.399178h-31.999678zM550.400645 852.800177h31.999677v30.399178h-31.999677zM633.599807 852.800177h31.999677v30.399178H633.599807z" fill="#193651" p-id="10174"></path><path d="M718.399468 852.800177h31.999678v30.399178h-31.999678z" fill="#193651" p-id="10175"></path></svg>