<?xml version="1.0" standalone="no"?><!DOCTYPE svg PUBLIC "-//W3C//DTD SVG 1.1//EN" "http://www.w3.org/Graphics/SVG/1.1/DTD/svg11.dtd"><svg t="1690038361078" class="icon" viewBox="0 0 1024 1024" version="1.1" xmlns="http://www.w3.org/2000/svg" p-id="12820" xmlns:xlink="http://www.w3.org/1999/xlink" width="200" height="200"><path d="M512 512m-512 0a512 512 0 1 0 1024 0 512 512 0 1 0-1024 0Z" fill="#FDBF5E" p-id="12821"></path><path d="M414.704415 94.106611h31.900023v30.304508h-31.900023zM496.051016 94.106611h31.900024v30.304508h-31.900024zM577.395562 94.106611h31.900023v30.304508h-31.900023z" fill="#193651" p-id="12822"></path><path d="M513.595515 250.417753c-124.411119-57.420042-269.557767-57.420042-392.37337 0v593.346601c116.435599-54.231068 253.606727-36.684513 373.233356 15.95104h39.875543C653.957674 808.673301 789.533287 789.533287 907.564401 843.764354V250.417753c-126.006634-57.420042-271.153282-57.420042-393.968886 0z" fill="#FFFFFF" p-id="12823"></path><path d="M532.735529 875.664378h-39.875543c-1.595515 0-4.784489 0-6.380005-1.595516-71.775566-30.304508-145.146648-47.851063-210.542209-47.851062-54.231068 0-103.67559 11.164494-149.931138 31.900023-4.784489 1.595515-11.164494 1.595515-15.95104-1.595515-4.784489-3.19103-7.97552-7.97552-7.975519-12.76001V250.417753c0-6.380005 3.19103-11.164494 9.571035-14.355525 62.206587-28.711049 132.386639-44.660033 202.56669-44.660032 66.991077 0 135.575613 14.355525 196.186685 41.471058 60.611072-27.115534 129.195608-41.471058 196.186685-41.471058 70.180051 0 140.362159 15.95104 202.56669 44.660032 6.380005 3.19103 9.571035 7.97552 9.571035 14.355525v593.346601c0 4.784489-3.19103 11.164494-7.97552 12.76001-4.784489 3.19103-11.164494 3.19103-15.951039 1.595515-44.660033-20.735529-95.70007-31.900023-149.931138-31.900023-65.395562 0-138.766643 15.95104-210.54221 47.851063 3.19103 1.593459 1.597571 1.593459-1.593459 1.593459z m-36.684513-31.900024h33.495539c74.966597-31.900023 149.931138-47.851063 220.113245-47.851063 49.444522 0 97.295585 7.97552 140.362158 25.520019V261.582247c-116.435599-51.040037-255.202242-49.444522-370.044382 4.78449-4.784489 1.595515-9.571035 1.595515-12.760009 0-114.84214-54.231068-253.606727-54.231068-370.044383-4.78449v559.851063c43.064517-15.95104 89.320065-25.520019 140.362159-25.520019 68.58248 0 143.549077 17.544499 218.515673 47.851063z" fill="#193651" p-id="12824"></path><path d="M189.806681 202.56669v569.420042c102.080075-51.040037 221.706704-51.040037 322.193319 0V202.56669c-100.486615-51.040037-220.111189-51.040037-322.193319 0z" fill="#F16051" p-id="12825"></path><path d="M465.744452 701.806681c-36.684513-11.164494-76.560056-17.544499-114.84214-17.544499s-78.155571 6.380005-114.84214 17.544499V234.466713c36.684513-14.355525 74.966597-22.331044 114.84214-22.331044 38.280028 0 78.155571 7.97552 114.84214 22.331044v467.339968z" fill="#F16051" p-id="12826"></path><path d="M189.806681 202.56669v569.420042c102.080075-51.040037 221.706704-51.040037 322.193319 0V202.56669c-100.486615-51.040037-220.111189-51.040037-322.193319 0z" fill="#E1E6E9" p-id="12827"></path><path d="M513.595515 787.937772c-3.19103 0-4.784489 0-7.97552-1.595516-95.70007-47.851063-213.73324-47.851063-307.837795 0-4.784489 3.19103-11.164494 1.595515-15.951039 0-4.784489-3.19103-7.97552-7.97552-7.97552-14.355524V202.56669c0-6.380005 3.19103-11.164494 7.97552-14.355525 103.67559-52.635552 232.873254-52.635552 336.548844 0 4.784489 3.19103 7.97552 7.97552 7.97552 14.355525v569.420042c0 4.784489-3.19103 11.164494-7.97552 14.355524 0 1.595515-3.188974 1.595515-4.78449 1.595516z m-162.691147-70.180052c49.444522 0 98.8911 9.571035 145.146648 30.304508V212.137725c-90.91558-43.064517-199.377716-43.064517-290.293296 0v534.331044c46.255548-19.14207 95.70007-28.711049 145.146648-28.711049z" fill="#193651" p-id="12828"></path><path d="M465.744452 701.806681c-36.684513-11.164494-76.560056-17.544499-114.84214-17.544499s-78.155571 6.380005-114.84214 17.544499V234.466713c36.684513-14.355525 74.966597-22.331044 114.84214-22.331044 38.280028 0 78.155571 7.97552 114.84214 22.331044v467.339968z" fill="#FFFFFF" p-id="12829"></path><path d="M513.595515 202.56669v569.420042c102.080075-51.040037 221.706704-51.040037 322.19332 0V202.56669c-102.080075-51.040037-221.706704-51.040037-322.19332 0z" fill="#F16051" p-id="12830"></path><path d="M789.533287 701.806681c-36.684513-11.164494-76.560056-17.544499-114.84214-17.544499s-78.155571 6.380005-114.84214 17.544499V234.466713c36.684513-14.355525 74.966597-22.331044 114.84214-22.331044s78.155571 7.97552 114.84214 22.331044v467.339968z" fill="#F16051" p-id="12831"></path><path d="M513.595515 202.56669v569.420042c102.080075-51.040037 221.706704-51.040037 322.19332 0V202.56669c-102.080075-51.040037-221.706704-51.040037-322.19332 0z" fill="#E1E6E9" p-id="12832"></path><path d="M513.595515 787.937772c-3.19103 0-6.380005 0-7.97552-1.595516-4.784489-3.19103-7.97552-7.97552-7.97552-14.355524V202.56669c0-6.380005 3.19103-11.164494 7.97552-14.355525 103.67559-52.635552 232.873254-52.635552 336.548844 0 4.784489 3.19103 7.97552 7.97552 7.97552 14.355525v569.420042c0 4.784489-3.19103 11.164494-7.97552 14.355524s-11.164494 3.19103-15.951039 0c-95.70007-47.851063-213.73324-47.851063-307.837795 0 0 1.595515-3.188974 1.595515-4.78449 1.595516z m15.95104-575.800047v534.331044c92.511096-38.280028 199.377716-38.280028 290.293296 0V212.137725c-90.917636-43.066574-199.377716-43.066574-290.293296 0z" fill="#193651" p-id="12833"></path><path d="M789.533287 701.806681c-36.684513-11.164494-76.560056-17.544499-114.84214-17.544499s-78.155571 6.380005-114.84214 17.544499V234.466713c36.684513-14.355525 74.966597-22.331044 114.84214-22.331044s78.155571 7.97552 114.84214 22.331044v467.339968z" fill="#FFFFFF" p-id="12834"></path><path d="M748.062228 299.862275c-46.255548-23.924503-100.486615-23.924503-146.742163 0-7.97552 3.19103-17.544499 1.595515-20.735529-6.380005-3.19103-7.97552-1.595515-17.544499 6.380005-20.735529 54.231068-27.115534 121.222145-27.115534 175.451156 0 7.97552 3.19103 11.164494 14.355525 6.380005 20.735529-3.186918 6.380005-12.757953 9.571035-20.733474 6.380005zM578.991077 381.208876c-3.19103-7.97552-1.595515-17.544499 6.380005-20.735529 54.231068-27.115534 121.222145-27.115534 175.451156 0 7.97552 3.19103 11.164494 14.355525 6.380004 20.735529-3.19103 7.97552-14.355525 11.164494-20.735529 6.380005-46.255548-23.924503-100.486615-23.924503-146.742163 0-6.377949 4.784489-15.948984 1.595515-20.733473-6.380005zM578.991077 470.528942c-3.19103-7.97552-1.595515-17.544499 6.380005-20.735529 54.231068-27.115534 121.222145-27.115534 175.451156 0 7.97552 3.19103 11.164494 14.355525 6.380004 20.735529-3.19103 7.97552-14.355525 11.164494-20.735529 6.380004-46.255548-23.924503-100.486615-23.924503-146.742163 0-6.377949 4.786546-15.948984 1.595515-20.733473-6.380004zM748.062228 567.826583c-44.660033-22.331044-100.486615-22.331044-146.742163 0-7.97552 3.19103-17.544499 1.595515-20.735529-6.380005-3.19103-7.97552-1.595515-17.544499 6.380005-20.735529 54.231068-27.115534 121.222145-27.115534 175.451156 0 7.97552 3.19103 11.164494 14.355525 6.380005 20.735529-3.186918 6.380005-12.757953 9.568979-20.733474 6.380005zM748.062228 657.146648c-46.255548-23.924503-100.486615-23.924503-146.742163 0-7.97552 4.784489-17.544499 1.595515-20.735529-6.380005-3.19103-7.97552-1.595515-17.544499 6.380005-20.735529 54.231068-27.115534 121.222145-27.115534 175.451156 0 7.97552 3.19103 11.164494 14.355525 6.380005 20.735529-3.186918 7.97552-12.757953 11.164494-20.733474 6.380005zM424.27545 299.862275c-46.255548-23.924503-100.486615-23.924503-146.742163 0-7.97552 3.19103-17.544499 1.595515-20.735529-6.380005-3.19103-7.97552-1.595515-17.544499 6.380004-20.735529 54.231068-27.115534 121.222145-27.115534 175.451156 0 7.97552 3.19103 11.164494 14.355525 6.380005 20.735529-3.188974 6.380005-12.760009 9.571035-20.733473 6.380005zM256.797758 381.208876c-3.19103-7.97552-1.595515-17.544499 6.380004-20.735529 54.231068-27.115534 121.222145-27.115534 175.451156 0 7.97552 3.19103 11.164494 14.355525 6.380005 20.735529-3.19103 7.97552-12.760009 11.164494-20.735529 6.380005-44.660033-22.331044-100.486615-22.331044-146.742163 0-6.377949 4.784489-15.948984 1.595515-20.733473-6.380005zM256.797758 470.528942c-3.19103-7.97552-1.595515-17.544499 6.380004-20.735529 54.231068-27.115534 121.222145-27.115534 175.451156 0 7.97552 3.19103 11.164494 14.355525 6.380005 20.735529-3.19103 7.97552-14.355525 11.164494-20.735529 6.380004-46.255548-23.924503-100.486615-23.924503-146.742163 0-6.377949 4.786546-15.948984 1.595515-20.733473-6.380004zM256.797758 561.446578c-3.19103-7.97552-1.595515-17.544499 6.380004-20.735529 54.231068-27.115534 121.222145-27.115534 175.451156 0 7.97552 3.19103 11.164494 14.355525 6.380005 20.735529-3.19103 7.97552-14.355525 11.164494-20.735529 6.380005-46.255548-23.924503-100.486615-23.924503-146.742163 0-6.377949 3.188974-15.948984 0-20.733473-6.380005zM424.27545 657.146648c-46.255548-23.924503-100.486615-23.924503-146.742163 0-7.97552 4.784489-17.544499 1.595515-20.735529-6.380005-3.19103-7.97552-1.595515-17.544499 6.380004-20.735529 54.231068-27.115534 121.222145-27.115534 175.451156 0 7.97552 3.19103 11.164494 14.355525 6.380005 20.735529-3.188974 7.97552-12.760009 11.164494-20.733473 6.380005z" fill="#193651" p-id="12835"></path></svg>