<?xml version="1.0" standalone="no"?><!DOCTYPE svg PUBLIC "-//W3C//DTD SVG 1.1//EN" "http://www.w3.org/Graphics/SVG/1.1/DTD/svg11.dtd"><svg t="1690038924581" class="icon" viewBox="0 0 1024 1024" version="1.1" xmlns="http://www.w3.org/2000/svg" p-id="10316" xmlns:xlink="http://www.w3.org/1999/xlink" width="200" height="200"><path d="M511.998969 511.798906m-510.400532 0a510.400532 510.400532 0 1 0 1020.801063 0 510.400532 510.400532 0 1 0-1020.801063 0Z" fill="#4FBF9F" p-id="10317"></path><path d="M598.39913 15.800808L247.999049 172.60026l350.400081 158.399951 352.00058-158.399951z" fill="#E1E6E9" p-id="10318"></path><path d="M598.39913 346.999019c-1.6005 0-4.799436 0-6.399936-1.600499L241.599114 188.599067c-6.399936-3.200999-9.600935-8.000435-9.600935-14.40037s3.200999-12.799871 9.600935-14.400371L591.999194 1.398375c4.799436-1.6005 9.600935-1.6005 12.799871 0l350.400081 156.799452c6.399936 3.200999 9.600935 8.000435 9.600935 14.40037s-3.200999 12.799871-9.600935 14.400371L604.799065 343.79802c-1.598437 1.602562-3.198937 3.200999-6.399935 3.200999zM286.400725 172.60026l312.000467 139.200145 312.000468-139.200145-312.00253-139.200145-311.998405 139.200145z" fill="#193651" p-id="10319"></path><path d="M806.400129 359.79889V202.999438c-129.59921-59.199919-286.400725-59.199919-415.999936 0v156.799452h415.999936z" fill="#FFFFFF" p-id="10320"></path><path d="M806.400129 375.79976H390.400193c-9.600935 0-16.00087-6.399936-16.00087-16.00087V202.999438c0-6.399936 3.200999-11.199372 9.600935-14.400371 65.599855-30.399178 140.800645-46.400048 214.400934-46.400048 75.20079 0 148.799017 16.00087 214.400935 46.400048 6.399936 3.200999 9.600935 8.000435 9.600935 14.400371v156.799452c0 4.799436-1.6005 8.000435-4.799437 11.199372-3.203062 3.200999-6.404061 4.801499-11.203496 4.801498z m-400.001128-31.999677h384.000258v-129.599211c-118.399839-51.199484-265.600419-51.199484-384.000258 0v129.599211zM307.198969 329.399712c-9.600935 0-16.00087-6.399936-16.00087-16.00087V199.800502c0-9.600935 6.399936-16.00087 16.00087-16.000871 9.600935 0 16.00087 6.399936 16.00087 16.000871v113.600402c0 7.998373-8.000435 15.998808-16.00087 15.998808z" fill="#193651" p-id="10321"></path><path d="M710.399033 468.599857c0 59.199919 46.400048 107.200467 105.599968 107.200467H121.600838c-59.199919 0-105.599968-48.000548-105.599968-107.200467s46.400048-107.200467 105.599968-107.200467h694.400225c-57.601482-1.6005-105.60203 46.400048-105.60203 107.200467z" fill="#E1E6E9" p-id="10322"></path><path d="M815.999001 559.799454c-49.598985 0-89.599098-41.600612-89.599098-91.199597 0-51.199484 40.000113-91.199597 89.599098-91.199597 9.600935 0 16.00087-6.399936 16.00087-16.00087 0-9.600935-6.399936-16.00087-16.00087-16.00087H121.600838C54.400483 343.800083 0 399.799003 0 468.599857c0 67.200354 54.400483 123.199275 121.600838 123.199275h694.400225c9.600935 0 16.00087-6.399936 16.000871-16.00087-0.002062-7.998373-6.401998-15.998808-16.002933-15.998808z m-694.398163 0c-49.598985 0-89.599098-41.600612-89.599098-91.199597 0-51.199484 40.000113-91.199597 89.599098-91.199597h614.4c-23.999243 22.400806-40.000113 56.000983-40.000113 91.199597s16.00087 68.800854 40.000113 91.199597H121.600838z" fill="#193651" p-id="10323"></path><path d="M121.600838 531.000775c-27.200242 0-49.598985-27.200242-49.598985-62.400918 0-33.600177 22.400806-62.400918 49.598985-62.400918H664.001047c-4.799436 19.199807-8.000435 40.000113-8.000435 62.400918s3.200999 43.199049 8.000435 62.400918H121.600838z" fill="#FFFFFF" p-id="10324"></path><path d="M710.399033 484.600727H169.599323c-9.600935 0-16.00087-6.399936-16.00087-16.00087 0-9.600935 6.399936-16.00087 16.00087-16.00087h540.79971c9.600935 0 16.00087 6.399936 16.00087 16.00087 0 8.000435-6.399936 16.00087-16.00087 16.00087z" fill="#193651" p-id="10325"></path><path d="M806.400129 684.599229c0-59.199919 46.400048-107.200467 105.599968-107.200468H121.600838c-59.199919-1.6005-105.599968 46.400048-105.599968 107.200468 0 59.199919 46.400048 107.200467 105.599968 107.200467h790.399259c-57.59942 0-105.599968-48.000548-105.599968-107.200467z" fill="#F16051" p-id="10326"></path><path d="M912.000097 807.800566H121.600838C54.400483 807.800566 0 751.799583 0 684.599229s54.400483-124.799774 121.600838-124.799775h790.399259c9.600935 0 16.00087 6.399936 16.00087 16.00087 0 9.600935-6.399936 16.00087-16.00087 16.00087-49.598985 0-89.599098 41.600612-89.599098 91.199598 0 51.199484 40.000113 91.199597 89.599098 91.199597 9.600935 0 16.00087 6.399936 16.00087 16.00087-0.002062 11.199372-6.401998 17.599307-16.00087 17.599307zM121.600838 591.799132c-49.598985 0-89.599098 41.600612-89.599098 92.800097s40.000113 91.199597 89.599098 91.199597h710.399033C808.000628 753.400083 791.999758 719.799905 791.999758 684.599229c0-36.799114 16.00087-68.800854 40.000113-91.199598H121.600838v-1.600499z" fill="#193651" p-id="10327"></path><path d="M121.600838 747.000147c-27.200242 0-49.598985-27.200242-49.598985-62.400918 0-33.600177 22.400806-62.400918 49.598985-62.400919h638.399243c-4.799436 19.199807-8.000435 40.000113-8.000435 62.400919s3.200999 43.199049 8.000435 62.400918H121.600838z" fill="#FFFFFF" p-id="10328"></path><path d="M806.400129 700.600099H169.599323c-9.600935 0-16.00087-6.399936-16.00087-16.00087s6.399936-16.00087 16.00087-16.000871h636.800806c9.600935 0 16.00087 6.399936 16.00087 16.000871-0.002062 8.000435-6.401998 16.00087-16.00087 16.00087z" fill="#193651" p-id="10329"></path><path d="M902.399162 900.600663c0 59.199919 46.400048 107.200467 105.599968 107.200467H121.600838c-59.199919 0-105.599968-48.000548-105.599968-107.200467s46.400048-107.200467 105.599968-107.200468h886.400354c-57.601482-1.6005-105.60203 46.400048-105.60203 107.200468z" fill="#FDBF5E" p-id="10330"></path><path d="M1007.99913 1023.799938H121.600838C54.400483 1023.799938 0 967.798955 0 900.600663c0-68.800854 54.400483-123.199275 121.600838-123.199275h886.400354c9.600935 0 16.00087 6.399936 16.00087 16.00087 0 9.600935-6.399936 16.00087-16.00087 16.00087-49.598985 0-89.599098 41.600612-89.599097 91.199597 0 51.199484 40.000113 91.199597 89.599097 91.199597 9.600935 0 16.00087 6.399936 16.00087 16.00087s-6.401998 15.996745-16.002932 15.996746zM121.600838 807.800566c-49.598985 0-89.599098 41.600612-89.599098 91.199597 0 51.199484 40.000113 92.800097 89.599098 92.800097h804.799629c-23.999243-22.400806-40.000113-56.000983-40.000113-91.199597 0-36.799114 16.00087-68.800854 40.000113-91.199598H121.600838v-1.600499z" fill="#193651" p-id="10331"></path><path d="M121.600838 961.399019c-27.200242 0-49.598985-27.200242-49.598985-62.400918 0-33.600177 22.400806-62.400918 49.598985-62.400919H855.999114c-4.799436 19.199807-8.000435 40.000113-8.000435 62.400919s3.200999 43.199049 8.000435 62.400918H121.600838z" fill="#FFFFFF" p-id="10332"></path><path d="M902.399162 916.59947H169.599323c-9.600935 0-16.00087-6.399936-16.00087-16.00087 0-9.600935 6.399936-16.00087 16.00087-16.00087h732.799839c9.600935 0 16.00087 6.399936 16.00087 16.00087 0 8.000435-6.399936 16.00087-16.00087 16.00087zM496.000161 250.999986H527.999839v31.999678h-31.999678z" fill="#193651" p-id="10333"></path><path d="M582.400322 250.999986h31.999678v31.999678h-31.999678zM668.800483 250.999986h31.999678v31.999678h-31.999678z" fill="#193651" p-id="10334"></path></svg>