<?xml version="1.0" standalone="no"?><!DOCTYPE svg PUBLIC "-//W3C//DTD SVG 1.1//EN" "http://www.w3.org/Graphics/SVG/1.1/DTD/svg11.dtd"><svg t="1690038666349" class="icon" viewBox="0 0 1024 1024" version="1.1" xmlns="http://www.w3.org/2000/svg" p-id="9997" xmlns:xlink="http://www.w3.org/1999/xlink" width="200" height="200"><path d="M390.399407 1007.9971L204.799588 676.797493 17.599272 1007.9971z" fill="#FFFFFF" p-id="9998"></path><path d="M390.399407 1023.997938H17.599272c-6.399923 0-11.199349-3.19893-14.400342-8.000419s-3.200993-11.199349 0-16.000838l185.59982-331.199607c6.399923-9.600915 22.400761-9.600915 27.200187 0l185.599819 331.199607a14.530279 14.530279 0 0 1 0 16.000838c0 4.799426-4.799426 8.000419-11.199349 8.000419zM44.799459 991.998324h318.399761l-158.399632-281.598659L44.799459 991.998324z" fill="#193651" p-id="9999"></path><path d="M172.799974 828.797203l-76.801134 137.601431h217.599433l-78.399569-137.601431z" fill="#CFD0D1" p-id="10000"></path><path d="M1007.9971 1007.9971l-185.59982-331.199607-187.198253 331.199607z" fill="#FFFFFF" p-id="10001"></path><path d="M1007.9971 1023.997938H635.199027c-6.399923 0-11.199349-3.19893-14.400342-8.000419a14.530279 14.530279 0 0 1 0-16.000838l185.59982-331.199607c6.399923-9.600915 22.400761-9.600915 27.200187 0l185.599819 331.199607a14.540591 14.540591 0 0 1 0 16.000838c0 4.799426-4.801489 8.000419-11.201411 8.000419zM662.399214 991.998324H980.798975l-158.399632-281.598659-160.000129 281.598659z" fill="#193651" p-id="10002"></path><path d="M790.397667 828.797203l-76.799072 137.601431h217.599433l-78.399568-137.601431z" fill="#CFD0D1" p-id="10003"></path><path d="M899.198414 1007.9971l-347.200444-556.797396L204.799588 1007.9971z" fill="#FFFFFF" p-id="10004"></path><path d="M899.198414 1023.997938H204.799588c-6.399923 0-11.199349-3.19893-14.400342-8.000419s-3.200993-11.199349 0-16.000838l347.198382-556.799459c6.399923-9.600915 20.800264-9.600915 27.200187 0l347.198382 556.799459a14.530279 14.530279 0 0 1 0 16.000838c-1.598434 4.799426-7.998356 8.000419-12.797783 8.000419zM233.600271 991.998324h636.799523L551.99797 481.598821 233.600271 991.998324z" fill="#193651" p-id="10005"></path><path d="M444.799781 740.798782l-132.799942 211.19951h478.397828l-131.199446-211.19951-57.599304 27.200187-49.600947-27.200187-51.199382 27.200187z" fill="#E1E6E9" p-id="10006"></path><path d="M551.99797 467.198479c-9.600915 0-16.000838-6.399923-16.000838-16.000838V230.399278c0-9.600915 6.399923-16.000838 16.000838-16.000838 9.600915 0 16.000838 6.399923 16.000838 16.000838v220.800426c0 9.598853-8.000419 15.998775-16.000838 15.998775z" fill="#193651" p-id="10007"></path><path d="M711.998099 345.599948h-160.000129v-115.20067h160.000129l-40.000033 57.599304z" fill="#FFFFFF" p-id="10008"></path><path d="M713.598595 361.598724c-1.600496 0-1.600496 0 0 0h-161.600625c-9.600915 0-16.000838-6.399923-16.000838-16.000838v-115.20067c0-9.600915 6.399923-16.000838 16.000838-16.000838h161.600625c6.399923 0 11.199349 3.200993 14.400342 8.000419 3.200993 4.799426 1.600496 11.199349-1.600497 16.000838l-33.600109 48.000451 31.999613 46.399955c3.200993 3.200993 4.799426 6.399923 4.799426 11.199349 0 11.201412-7.998356 17.601334-15.998775 17.601334z m-145.599787-31.999613h115.20067l-22.400761-31.999614c-3.200993-4.799426-3.200993-12.799845 0-17.599271l22.400761-31.999614h-115.20067v81.598499z" fill="#193651" p-id="10009"></path><path d="M217.599433 217.599433m-135.998872 0a135.998872 135.998872 0 1 0 271.997744 0 135.998872 135.998872 0 1 0-271.997744 0Z" fill="#FDBF5E" p-id="10010"></path><path d="M217.599433 371.199639c-84.799491 0-151.99971-68.800715-151.99971-151.99971 0-84.799491 68.800715-151.99971 151.99971-151.99971 84.799491 0 151.99971 68.800715 151.99971 151.99971 1.600496 83.198995-67.200219 151.99971-151.99971 151.99971z m0-273.600303c-67.200219 0-120.000097 54.400374-120.000097 120.000097 0 67.200219 54.400374 120.000097 120.000097 120.000096 67.200219 0 120.000097-54.400374 120.000096-120.000096 1.600496-65.599723-52.799878-120.000097-120.000096-120.000097z" fill="#193651" p-id="10011"></path><path d="M217.599433 217.599433m-80.000065 0a80.000064 80.000064 0 1 0 160.000129 0 80.000064 80.000064 0 1 0-160.000129 0Z" fill="#FFFFFF" p-id="10012"></path><path d="M0 201.598595h31.999613v31.999613H0zM404.799749 201.598595h31.999613v31.999613h-31.999613zM65.269724 325.750494l-27.715811 15.996713-15.996713-27.71581 27.715811-15.996713zM415.262787 122.743215l-27.713748 15.996713-15.996713-27.715811 27.713748-15.996712zM138.830678 388.03785l-15.996713 27.715811-27.715811-15.994651 15.996713-27.71581zM341.697707 36.941352l-16.004962 27.713748-27.713749-16.004963 16.004963-27.713748zM201.598595 404.799749h31.999613v31.999613H201.598595zM201.598595 0h31.999613v31.999613H201.598595zM341.776082 399.251637l-27.713748 15.996712-15.996713-27.71581 27.715811-15.996713zM138.754366 49.252386l-27.713749 16.004963-16.004962-27.715811 27.713748-16.004963zM415.848536 313.953022l-15.998776 27.711686-27.711686-15.998776 15.998776-27.711686zM64.669538 111.052992L48.670762 138.764678l-27.711686-16.000838 15.998776-27.711685z" fill="#193651" p-id="10013"></path><path d="M969.597564 65.599723c-8.000419 0-16.000838 1.600496-23.999195 6.399923-8.000419-16.000838-25.599691-27.200187-43.198962-27.200187C892.798492 19.199768 867.198801 1.600496 838.40018 1.600496c-36.79904 0-67.200219 28.800683-68.800715 65.599723h-3.200993c-30.399117 0-54.400374 23.999194-54.400373 54.400374s23.999194 54.400374 54.400373 54.400374h203.199092c30.399117 0 54.400374-23.999194 54.400374-54.400374 0-32.001676-23.999194-56.00087-54.400374-56.00087zM324.799684 511.997938c-6.399923 0-12.799845 1.600496-19.199768 4.799426-6.399923-12.799845-19.199768-20.800264-35.200606-22.400761-8.000419-20.800264-27.200187-35.200606-51.199381-35.200606-28.800683 0-52.799878 22.400761-54.400374 52.799878h-1.600496a43.019525 43.019525 0 0 0-43.198962 43.198962 43.019525 43.019525 0 0 0 43.198962 43.198963h160.000129a43.019525 43.019525 0 0 0 43.198962-43.198963c1.600496-23.995069-17.599272-43.1969-41.598466-43.196899zM979.198479 487.998743c-6.399923 0-12.799845 1.600496-19.199768 4.799427-6.399923-12.799845-19.199768-20.800264-35.200606-22.400761-8.000419-20.800264-27.200187-35.200606-51.199381-35.200606-28.800683 0-52.799878 22.400761-54.400374 52.799878h-1.600496a43.019525 43.019525 0 0 0-43.198963 43.198962 43.019525 43.019525 0 0 0 43.198963 43.198962h160.000129a43.019525 43.019525 0 0 0 43.198962-43.198962c1.600496-22.396636-17.599272-43.1969-41.598466-43.1969z" fill="#2EA2DB" p-id="10014"></path></svg>