<?xml version="1.0" standalone="no"?><!DOCTYPE svg PUBLIC "-//W3C//DTD SVG 1.1//EN" "http://www.w3.org/Graphics/SVG/1.1/DTD/svg11.dtd"><svg t="1690788529081" class="icon" viewBox="0 0 1024 1024" version="1.1" xmlns="http://www.w3.org/2000/svg" p-id="9377" xmlns:xlink="http://www.w3.org/1999/xlink" width="128" height="128"><path d="M560.001579 504.699783m-464.000483 0a464.000483 464.000483 0 1 0 928.000966 0 464.000483 464.000483 0 1 0-928.000966 0Z" fill="#F16051" p-id="9378"></path><path d="M534.401837 946.301524H310.40203c-9.600935 0-16.00087-6.399936-16.00087-16.00087s6.399936-16.00087 16.00087-16.000871h225.600306c9.600935 0 16.00087 6.399936 16.000871 16.000871-1.6005 8.000435-8.000435 16.00087-17.60137 16.00087z" fill="#193651" p-id="9379"></path><path d="M537.602836 946.301524v-31.999678c9.600935 0 20.800306 0 30.399178-1.6005l3.200999 31.999678c-11.201434 0-22.400806 1.6005-33.600177 1.6005z m67.198292-6.399936l-4.799436-31.999678c9.600935-1.6005 20.800306-3.200999 30.399178-6.399935l8.000435 30.399178c-12.799871 4.799436-23.999243 6.399936-33.600177 8.000435z m64.001418-16.00087l-9.600935-30.399178c9.600935-3.200999 19.199807-6.399936 28.800742-11.199372l12.799871 28.800741c-11.199372 6.397873-22.400806 9.59681-31.999678 12.797809z m60.798356-23.999243l-14.40037-28.800741c9.600935-4.799436 17.599307-9.600935 27.200241-14.40037l16.000871 27.200241c-9.598872 4.799436-19.199807 11.199372-28.800742 16.00087z m57.601483-35.200676l-19.199807-25.599743L792.001821 819.90125l20.800306 23.999242c-8.000435 8.000435-17.599307 14.400371-25.599742 20.800307z m49.598985-41.600613l-20.800307-23.999242c8.000435-6.399936 14.400371-14.400371 20.800307-22.400806l23.999242 20.800306c-7.998373 9.600935-15.998808 17.599307-23.999242 25.599742z m44.799548-49.598985l-25.599742-19.199806c6.399936-8.000435 12.799871-16.00087 17.599307-25.599742l27.200242 17.599307c-6.399936 8.000435-12.799871 17.599307-19.199807 27.200241z m35.200677-56.000982l-28.800741-16.000871c4.799436-9.600935 9.600935-17.599307 12.799871-27.200241l28.800741 12.799871c-1.6005 9.600935-6.399936 20.802369-12.799871 30.401241z m27.200242-60.800419l-30.399178-11.199372 9.600934-28.800741 30.399178 8.000435c-1.6005 9.600935-4.801499 20.800306-9.600934 31.999678z m17.599307-63.999356l-31.999678-6.399935c1.6005-9.600935 3.200999-20.800306 4.799436-30.399179l31.999678 3.200999-4.799436 33.598115z m8.000435-67.200354l-31.999678-1.6005v-14.40037-17.599308l31.999678-1.600499v35.200677z m-35.200677-62.398856c-1.6005-9.600935-3.200999-20.800306-4.799436-30.399179l31.999678-6.399935c1.6005 11.199372 3.200999 22.400806 4.799436 31.999678l-31.999678 4.799436z m-11.199371-59.19992l-9.600935-28.800741 30.399178-11.199372c3.200999 9.600935 6.399936 20.800306 9.600935 31.999678l-30.399178 8.000435z m-20.800306-57.601482c-4.799436-9.600935-9.600935-19.199807-14.400371-27.200242l28.800741-16.00087c4.799436 9.600935 9.600935 19.199807 14.400371 30.399178l-28.800741 12.801934z m-30.399179-54.398421c-4.799436-8.000435-11.199372-17.599307-17.599307-25.599742l25.599742-19.199807c6.399936 8.000435 12.799871 17.599307 19.199807 27.200242l-27.200242 17.599307z m-36.801176-49.601047c-6.399936-8.000435-14.400371-14.400371-20.800306-22.400806l22.400806-22.400806c8.000435 8.000435 16.00087 16.00087 22.400805 23.999243l-24.001305 20.802369zM790.401321 200.701814l-23.999242-19.199807 19.199806-25.599742c9.600935 6.399936 17.599307 12.799871 27.200242 20.800306L790.401321 200.701814z m-49.598985-35.200677c-9.600935-4.799436-17.599307-9.600935-27.200241-14.400371l14.40037-28.800741c9.600935 4.799436 19.199807 9.600935 28.800742 16.00087l-16.000871 27.200242z m-56.000982-27.200242c-9.600935-4.799436-19.199807-8.000435-28.800742-11.199371l9.600935-30.399179c11.199372 3.200999 20.800306 6.399936 31.999678 11.199372l-12.799871 30.399178z m-59.19992-19.199806c-9.600935-1.6005-20.800306-4.799436-30.399178-6.399936l4.799436-31.999678c11.199372 1.6005 22.400806 3.200999 31.999678 6.399936l-6.399936 31.999678z m-60.800419-9.600935c-9.600935 0-20.800306-1.6005-30.399178-1.600499V75.899977c11.199372 0 22.400806 0 33.600177 1.600499l-3.200999 31.999678z" fill="#193651" p-id="9380"></path><path d="M534.401837 107.901717H310.40203c-9.600935 0-16.00087-6.399936-16.00087-16.00087s6.399936-16.00087 16.00087-16.00087h225.600306c9.600935 0 16.00087 6.399936 16.000871 16.00087-1.6005 9.600935-8.000435 16.00087-17.60137 16.00087zM532.801337 216.700621H145.602143c-3.200999 0-6.399936-1.6005-8.000435-3.200999L60.802481 165.501137H16.002933C6.401998 165.501137 0.002062 159.101201 0.002062 149.500267s6.399936-16.00087 16.000871-16.00087h49.598984c3.200999 0 6.399936 1.6005 8.000436 3.200999l76.799226 48.000548h384.000258c9.600935 0 16.00087 6.399936 16.00087 16.00087-1.6005 9.598872-8.000435 15.998808-17.60137 15.998807zM321.601402 303.100783H129.601273c-3.200999 0-6.399936-1.6005-9.600935-3.201L59.201982 253.501798H16.002933c-9.600935 0-16.00087-6.399936-16.000871-16.00087s6.399936-16.00087 16.000871-16.000871h49.598984c3.200999 0 6.399936 1.6005 9.600935 3.200999l60.800419 46.400049h185.600193c9.600935 0 16.00087 6.399936 16.00087 16.00087-0.002062 9.598872-8.002498 15.998808-16.002932 15.998808zM262.401482 381.500509h-147.20058c-4.799436 0-8.000435-1.6005-11.199371-4.799436l-44.799549-44.799549H16.002933c-9.600935 0-16.00087-6.399936-16.000871-16.00087 0-9.600935 6.399936-16.00087 16.000871-16.000871h49.598984c4.799436 0 8.000435 1.6005 11.199372 4.799437l44.799549 44.799548h140.800644c9.600935 0 16.00087 6.399936 16.000871 16.00087 0 8.000435-8.000435 16.00087-16.000871 16.000871zM232.002304 458.299735h-116.799339c-4.799436 0-8.000435-1.6005-11.199372-4.799436l-44.799549-44.799549H16.002933C6.401998 408.70075 0.002062 402.300815 0.002062 392.69988c0-9.600935 6.399936-16.00087 16.000871-16.00087h49.598984c4.799436 0 8.000435 1.6005 11.199372 4.799436l44.799549 44.799549h110.399404c9.600935 0 16.00087 6.399936 16.00087 16.00087 0 8.002498-7.998373 16.00087-15.998808 16.00087zM65.601917 887.101604H16.002933c-9.600935 0-16.00087-6.399936-16.000871-16.00087s6.399936-16.00087 16.000871-16.00087h44.799548l76.799227-48.000548c3.200999-1.6005 4.799436-3.200999 8.000435-3.200999h388.799694c9.600935 0 16.00087 6.399936 16.00087 16.00087s-6.399936 16.00087-16.00087 16.00087H150.401579l-76.799226 48.000548c-3.200999 3.200999-6.399936 3.200999-8.000436 3.200999zM65.601917 800.701443H16.002933c-9.600935 0-16.00087-6.399936-16.000871-16.00087s6.399936-16.00087 16.000871-16.00087h43.199049l60.800419-46.400048c3.200999-3.198937 6.399936-3.198937 9.600934-3.198937h192.000129c9.600935 0 16.00087 6.399936 16.00087 16.00087s-6.399936 16.00087-16.00087 16.00087H136.001208L75.20079 797.502507c-3.198937 1.598437-6.397873 3.198937-9.598873 3.198936zM65.601917 723.900154H16.002933c-9.600935 0-16.00087-6.399936-16.000871-16.00087s6.399936-16.00087 16.000871-16.00087h41.600612l44.799549-44.799549c3.200999-3.200999 6.399936-4.799436 11.199371-4.799436h147.20058c9.600935 0 16.00087 6.399936 16.000871 16.00087s-6.399936 16.00087-16.000871 16.00087H121.6029l-44.799548 44.799549c-3.200999 3.200999-8.000435 4.799436-11.201435 4.799436zM65.601917 647.100928H16.002933c-9.600935 0-16.00087-6.399936-16.000871-16.000871s6.399936-16.00087 16.000871-16.00087h41.600612l44.799549-44.799549c3.200999-3.200999 6.399936-4.799436 11.199371-4.799436h116.79934c9.600935 0 16.00087 6.399936 16.00087 16.000871s-6.399936 16.00087-16.00087 16.00087H121.6029l-44.799548 44.799548c-3.200999 3.198937-8.000435 4.799436-11.201435 4.799437zM225.602369 527.100589H16.002933c-9.600935 0-16.00087-6.399936-16.000871-16.00087 0-9.600935 6.399936-16.00087 16.000871-16.00087h209.599436c9.600935 0 16.00087 6.399936 16.00087 16.00087-0.002062 9.600935-8.000435 16.00087-16.00087 16.00087z" fill="#193651" p-id="9381"></path><path d="M545.601208 831.100621c177.599758 0 320.000902-143.999581 320.000903-320.000902 0-177.599758-143.999581-320.000902-320.000903-320.000902s-320.000902 143.999581-320.000902 320.000902c0.002062 177.601821 144.001644 320.000902 320.000902 320.000902z" fill="#FFFFFF" p-id="9382"></path><path d="M545.601208 847.101491c-185.600193 0-335.99971-150.399517-335.999709-335.999709s150.399517-336.001772 335.999709-336.001773 335.99971 150.399517 335.99971 335.99971c1.6005 185.600193-150.399517 336.001772-335.99971 336.001772z m0-639.999742c-168.000886 0-304.000032 135.999146-304.000032 304.000033S377.602385 815.099751 545.601208 815.099751s304.000032-135.999146 304.000033-304.000032c1.6005-167.998824-135.999146-303.99797-304.000033-303.99797z" fill="#193651" p-id="9383"></path><path d="M281.601289 511.169844a264.006107 264.006107 0 1 0 528.012214 0 264.006107 264.006107 0 1 0-528.012214 0Z" fill="#2EA2DB" p-id="9384"></path><path d="M523.202465 555.90133s-11.199372-11.199372 30.399179-22.400805c0 0 11.199372 3.200999 6.399935-28.800742l12.799871-3.200999s1.6005-25.599742 16.00087-19.199806c0 0 9.600935 6.399936 16.00087-12.799871 0 0 25.599742-16.00087 38.399614 23.999242 0 0 41.600612 12.799871 8.000435 57.59942l-16.00087 20.800306 11.199371 38.399614s-9.600935 4.799436 0 19.199806c0 0-9.600935 16.00087 8.000435 36.799114 0 0-3.200999 41.600612-30.399178 36.799114l4.799436-11.199372-8.000435-14.40037 11.199372-3.200999-12.799871-14.400371 6.399935-8.000435s-43.199049 9.600935-54.400483-27.200242c0 0 12.799871-23.999243-16.00087-11.199371 0 0-14.400371 4.799436-23.999243-30.399178 0 0-16.00087-8.000435-17.599307-16.000871 0-7.994248 9.600935-11.193184 9.600934-11.193184zM284.802288 472.700106c6.399936 9.600935 8.000435 23.999243 8.000435 23.999242 17.599307 19.199807 36.799114-22.400806 36.799114-22.400805 17.599307 20.800306 36.799114-12.799871 36.799114-12.799871 54.400483-51.199484 81.600725 4.799436 81.600725 4.799436 41.600612 22.400806 22.400806 75.20079 22.400805 75.200789-12.799871 31.999678-49.598985 4.799436-49.598984 4.799436-12.799871 28.800741-25.599742 25.599742-25.599743 25.599742l6.399936 12.799872c6.399936 12.799871-12.799871 35.200677-9.600935 43.199049 3.200999 6.399936 40.000113 16.00087 20.800307 43.199049-17.599307 27.200242-3.200999 40.000113-3.201 40.000113s-6.399936 9.600935-11.199371 19.199807c-49.598985-33.600177-88.000661-83.199162-105.599968-143.999581-11.201434-38.395488-12.799871-76.795102-8.000435-113.596278zM712.001595 400.700315l-4.799436 30.399178c-4.799436 30.399178-31.999678 3.200999-30.399178-11.199371 1.6005-14.400371-16.00087-31.999678-44.799549-16.00087-28.800741 16.00087-17.599307 0-54.400483-25.599742s-44.799549 4.799436-59.19992-12.799872c-14.400371-17.599307-30.399178-52.799984 6.399936-40.000112 38.399613 14.400371 31.999678 4.799436-6.399936-22.400806-38.399613-27.200242 20.800306 0 67.200355-14.400371 20.800306-6.399936 23.999243-22.400806 20.800306-38.399613 28.800741 8.000435 56.000983 20.800306 81.600725 38.399613 8.000435 12.799871 17.599307 28.800741 31.999678 54.400484 23.99718 40.002175-8.002498 57.601482-8.002498 57.601482z" fill="#E1E6E9" p-id="9385"></path><path d="M363.202014 984.701137l-62.400918-41.600612c-4.799436-3.200999-6.399936-8.000435-6.399936-12.799871s3.200999-9.600935 6.399936-12.799871l62.400918-41.600613c8.000435-4.799436 17.599307-3.200999 22.400806 4.799436 4.799436 8.000435 3.200999 17.599307-4.799436 22.400806l-43.19905 28.800741 43.19905 28.800741c8.000435 4.799436 9.600935 14.400371 4.799436 22.400806-4.801499 4.797374-16.00087 6.397873-22.400806 1.598437zM363.202014 147.90183l-62.400918-41.600612c-4.799436-3.200999-6.399936-8.000435-6.399936-12.799872 0-4.799436 3.200999-9.600935 6.399936-12.799871l62.400918-41.600612c8.000435-4.799436 17.599307-3.200999 22.400806 4.799436s3.200999 17.599307-4.799436 22.400806L337.602272 95.101846l43.199049 28.800741c8.000435 4.799436 9.600935 14.400371 4.799436 22.400806-4.799436 4.797374-15.998808 6.397873-22.398743 1.598437z" fill="#193651" p-id="9386"></path></svg>