<?xml version="1.0" standalone="no"?><!DOCTYPE svg PUBLIC "-//W3C//DTD SVG 1.1//EN" "http://www.w3.org/Graphics/SVG/1.1/DTD/svg11.dtd"><svg t="1690857890485" class="icon" viewBox="0 0 1024 1024" version="1.1" xmlns="http://www.w3.org/2000/svg" p-id="9377" xmlns:xlink="http://www.w3.org/1999/xlink" width="128" height="128"><path d="M1007.99913 54.400483v588.800258H550.400645V54.400483h142.399081l-8.000435 40.000113h188.801192l-9.600934-40.000113z" fill="#FDBF5E" p-id="9378"></path><path d="M1007.99913 659.199549H550.400645c-9.600935 0-16.00087-6.399936-16.000871-16.00087V54.400483c0-9.600935 6.399936-16.00087 16.000871-16.00087h143.999581c4.799436 0 9.600935 1.6005 12.799871 6.399936 3.200999 3.200999 4.799436 8.000435 3.200999 12.799871l-6.399936 20.800306h148.799017l-4.799436-19.199807c-1.6005-4.799436 0-9.600935 3.200999-12.799871 3.200999-3.200999 8.000435-6.399936 12.799871-6.399935h143.999581c9.600935 0 16.00087 6.399936 16.00087 16.00087V644.799178c-0.002062 8.000435-8.002498 14.400371-16.002932 14.400371z m-441.599678-31.999678H992.000322V70.399291h-107.200467l4.799436 19.199807c1.6005 4.799436 0 9.600935-3.200999 12.799871-3.200999 3.200999-8.000435 6.399936-12.799871 6.399935h-188.79913c-4.799436 0-9.600935-1.6005-12.799871-6.399935-3.200999-3.200999-4.799436-8.000435-3.200999-12.799871l4.799436-19.199807h-107.200467l0.002062 556.80058z" fill="#193651" p-id="9379"></path><path d="M614.4 158.399952h329.599774v420.799371H614.4zM702.400661 16.00087h153.598453l17.601369 78.399726h-188.801192z" fill="#FFFFFF" p-id="9380"></path><path d="M873.600483 110.399404h-188.799129c-4.799436 0-9.600935-1.6005-12.799872-6.399936-3.200999-3.200999-4.799436-8.000435-3.200999-12.799871L686.399791 12.799871C688.00029 4.799436 694.400226 0 702.400661 0h152.000016c8.000435 0 14.400371 4.799436 16.00087 12.799871l17.599307 75.20079c1.6005 1.6005 1.6005 4.799436 1.6005 6.399935-0.002062 7.998373-6.401998 15.998808-16.000871 15.998808z m-169.601385-31.999678h148.799017l-9.600935-46.400048h-128.000773l-11.197309 46.400048zM676.798856 278.40029h31.999678v31.999678h-31.999678z" fill="#193651" p-id="9381"></path><path d="M763.199017 278.40029h31.999678v31.999678h-31.999678zM849.599178 278.40029h31.999678v31.999678h-31.999678z" fill="#193651" p-id="9382"></path><path d="M646.399678 697.599162l-100.800532-54.400483-142.399082 326.400838-142.399081-326.400838-100.800532 54.400483c-89.599098 44.799549-143.999581 115.200902-143.999581 190.39963v19.199806c0 56.000983 44.799549 100.800532 100.800532 100.800532h574.399887c56.000983 0 100.800532-44.799549 100.800532-100.800532v-19.199806c-0.002062-75.198727-52.802046-145.598018-145.602143-190.39963z" fill="#E1E6E9" p-id="9383"></path><path d="M691.199227 1024H116.799339c-63.999355 0-116.799339-52.799984-116.799339-116.799339v-19.199807c0-81.600725 57.59942-156.799452 155.198953-204.8l99.200032-54.400483c3.200999-1.6005 8.000435-3.200999 12.799871-1.6005 4.799436 1.6005 8.000435 4.799436 9.600935 8.000435l128.000773 292.800661 128.000773-292.800661c1.6005-4.799436 4.799436-8.000435 9.600935-8.000435 4.799436-1.6005 9.600935-1.6005 12.799871 1.6005l100.800532 54.400483c95.999033 48.000548 155.201015 123.199275 155.201015 204.8v19.199807c-3.203062 63.999355-54.404608 116.799339-120.004463 116.799339z m-436.800242-358.400516L169.599323 711.999533c-86.400161 41.600612-137.599646 107.200467-137.599645 175.999259v19.199806c0 46.400048 38.399613 84.799662 84.799661 84.799662h574.399888c46.400048 0 84.799662-38.399613 84.799661-84.799662v-19.199806c0-68.800854-51.199484-134.400709-137.599645-175.999259l-84.799662-46.400049-134.400709 310.399968c-3.200999 6.399936-8.000435 9.600935-14.400371 9.600935s-12.799871-3.200999-14.40037-9.600935l-135.999146-310.399968z" fill="#193651" p-id="9384"></path><path d="M359.998953 964.800081h89.60116l-17.599307-200.000564 25.599742-38.399614-52.799984-52.799984-52.799984 52.799984 25.599742 38.399614z" fill="#F16051" p-id="9385"></path><path d="M604.799065 761.60058l-22.398743-99.200032-35.200676-19.199807-142.399082 326.398776-142.401144-326.398776-35.198614 19.199807-22.400806 99.200032 55.99892-4.801498-31.999677 43.201111 152.000016 193.598566h46.400048l152.000016-193.598566-31.999677-43.201111z" fill="#CFD0D1" p-id="9386"></path><path d="M564.798953 419.198872c0 86.400161-71.999791 223.999807-163.199388 223.999807s-163.199388-135.999146-163.199388-223.999807c0-86.400161 71.999791-163.199388 163.199388-163.199388s163.199388 76.801289 163.199388 163.199388z" fill="#FFFFFF" p-id="9387"></path><path d="M401.599565 659.199549c-102.398969 0-179.200258-145.600081-179.200258-240.000677 0-97.599533 81.600725-179.200258 179.200258-179.200258 95.999033 0 179.200258 81.600725 179.200258 179.200258 0 94.400596-76.799227 240.000677-179.200258 240.000677z m0-387.199195c-80.000226 0-147.20058 67.200354-147.20058 147.200581s67.200354 207.998937 147.20058 207.998936 147.20058-128.000773 147.20058-207.998936c0-78.401789-67.200354-147.20058-147.20058-147.200581z" fill="#193651" p-id="9388"></path><path d="M433.599243 241.599114c-68.800854-16.00087-102.398969 22.400806-105.599968 33.600177-1.6005 1.6005-3.200999 1.6005-6.399936 3.200999-102.398969-22.400806-83.199162 140.800645-83.199162 140.800645 0 27.200242 6.399936 57.59942 19.199807 89.599097 0-23.999243 1.6005-131.19971 59.199919-115.200902 0 0 67.200354 52.799984 160.000451 1.600499 0 0 57.59942-22.400806 68.800854 110.399404 12.797809-28.798679 92.798034-217.599871-112.001965-263.999919z" fill="#F16051" p-id="9389"></path><path d="M257.599984 524.79884c-6.399936 0-12.799871-3.200999-14.400371-9.600935-12.799871-31.999678-20.800306-65.599855-20.800306-94.400596-1.6005-14.400371-9.600935-103.999468 31.999678-142.399081 11.199372-9.600935 30.399178-20.800306 60.800419-16.000871 14.400371-20.800306 54.400483-49.598985 120.000338-35.200676 63.999355 14.400371 108.798904 43.199049 131.19971 88.00066 27.200242 49.598985 23.999243 115.200902-6.399935 195.199066l1.600499 1.600499c-3.200999 8.000435-12.799871 12.799871-20.800306 9.600935-8.000435-3.200999-12.799871-12.799871-9.600935-20.800306l1.6005-3.200999c27.200242-70.399291 30.399178-126.400274 8.000435-168.000887-19.199807-35.200677-56.000983-59.199919-110.399404-70.399291-59.199919-12.799871-84.799662 16.00087-88.00066 22.400806-1.6005 3.200999-4.799436 6.399936-8.000436 8.000435-1.6005 1.6005-3.200999 1.6005-4.799436 3.200999-3.200999 1.6005-8.000435 3.200999-11.199371 1.6005-17.599307-3.200999-30.399178-1.6005-41.600612 8.000435-27.200242 23.999243-25.599742 92.800097-22.400806 116.799339v1.6005c0 23.999243 6.399936 54.400483 17.599307 83.199162 3.200999 8.000435 0 17.599307-9.600935 20.800306h-4.797373zM404.800564 985.600387c-6.399936 0-12.799871-3.200999-14.400371-9.600935l-135.999146-310.399968-84.801724 46.400049c-8.000435 4.799436-17.599307 1.6005-22.400805-6.399936s-1.6005-17.599307 6.399935-22.400805l100.800532-54.400484c3.200999-1.6005 8.000435-3.200999 12.799871-1.600499 4.799436 1.6005 8.000435 4.799436 9.600935 8.000435l128.000773 292.80066 128.000773-292.80066c1.6005-4.799436 4.799436-8.000435 9.600935-8.000435 4.799436-1.6005 9.600935-1.6005 12.799871 1.600499l100.800532 54.400484c8.000435 4.799436 11.199372 14.400371 6.399935 22.400805s-14.400371 11.199372-22.400805 6.399936l-84.799662-46.400049-135.999146 310.399968c-3.203062 6.399936-8.002498 9.600935-14.402433 9.600935zM668.800483 198.400064h222.399308v31.999678h-222.399308zM676.798856 438.400741h31.999678v31.999678h-31.999678z" fill="#193651" p-id="9390"></path><path d="M763.199017 438.400741h31.999678v31.999678h-31.999678zM849.599178 438.400741h31.999678v31.999678h-31.999678zM668.800483 358.400516h222.399308v31.999677h-222.399308z" fill="#193651" p-id="9391"></path></svg>